<svg width="54" height="21" viewBox="0 0 54 21" fill="none" xmlns="http://www.w3.org/2000/svg">
<rect x="0.5" y="0.5" width="53" height="20" rx="3.5" stroke="#F91E4E"/>
<path d="M21.01 14.446H25.056V16H19.127V5.878H21.01V14.446ZM28.2904 16H26.4004V5.878H28.2904V16ZM29.3527 5.878H30.8647C31.028 5.878 31.161 5.91767 31.2637 5.997C31.3664 6.07633 31.4434 6.179 31.4947 6.305L33.8817 12.479C33.961 12.6797 34.0357 12.9013 34.1057 13.144C34.1804 13.382 34.2504 13.6317 34.3157 13.893C34.367 13.6317 34.4254 13.382 34.4907 13.144C34.5607 12.9013 34.6354 12.6797 34.7147 12.479L37.0877 6.305C37.125 6.19767 37.1974 6.09967 37.3047 6.011C37.4167 5.92233 37.552 5.878 37.7107 5.878H39.2297L35.1417 16H33.4407L29.3527 5.878ZM46.6614 5.878V7.376H42.1674V10.183H45.7094V11.632H42.1674V14.495H46.6614V16H40.2774V5.878H46.6614Z" fill="#F91E4E"/>
<rect x="8" y="7" width="6" height="6" rx="3" fill="#F91E4E"/>
</svg>
