<svg width="40" height="40" viewBox="0 0 40 40" fill="none" xmlns="http://www.w3.org/2000/svg">
<rect width="40" height="40" rx="20" fill="#D13E34"/>
<g clip-path="url(#clip0_82_2735)">
<path d="M19.9999 8.57141C17.7395 8.57141 15.5299 9.24169 13.6505 10.4975C11.7711 11.7533 10.3062 13.5382 9.44124 15.6265C8.57624 17.7148 8.34992 20.0127 8.79089 22.2296C9.23186 24.4465 10.3203 26.4829 11.9186 28.0812C13.517 29.6795 15.5533 30.768 17.7703 31.209C19.9872 31.6499 22.2851 31.4236 24.3734 30.5586C26.4617 29.6936 28.2466 28.2288 29.5024 26.3494C30.7582 24.4699 31.4284 22.2603 31.4284 20C31.4252 16.9699 30.22 14.0649 28.0775 11.9224C25.9349 9.77982 23.0299 8.57469 19.9999 8.57141V8.57141ZM20.9646 12.5362C20.9643 12.4432 20.9912 12.3522 21.042 12.2744C21.0927 12.1965 21.1652 12.1353 21.2503 12.0981L23.8951 10.9686C23.9574 10.942 24.0246 10.9291 24.0922 10.9305C24.1599 10.932 24.2264 10.9479 24.2875 10.9771C25.3865 11.5038 26.3804 12.226 27.2208 13.1086C27.2677 13.1575 27.3035 13.2158 27.326 13.2797C27.3485 13.3436 27.3571 13.4116 27.3513 13.479L27.0856 16.4809C27.0791 16.5602 27.0529 16.6366 27.0093 16.7032C26.9657 16.7697 26.9062 16.8243 26.8361 16.8619L24.9942 17.8495C24.9151 17.8919 24.8257 17.911 24.7362 17.9048C24.6467 17.8985 24.5609 17.8672 24.4884 17.8143L21.1551 15.3895C21.0944 15.3452 21.0451 15.2871 21.0112 15.2201C20.9773 15.153 20.9597 15.0789 20.9599 15.0038L20.9646 12.5362ZM12.7989 13.0847C13.6375 12.2095 14.6278 11.4935 15.7218 10.9714C15.7828 10.9422 15.8494 10.9263 15.917 10.9248C15.9847 10.9233 16.0519 10.9363 16.1142 10.9628L18.7703 12.0952C18.8555 12.1324 18.928 12.1937 18.9787 12.2715C19.0295 12.3494 19.0564 12.4404 19.0561 12.5333V15.0047C19.0554 15.0792 19.0373 15.1524 19.0032 15.2185C18.9692 15.2847 18.9201 15.3419 18.8599 15.3857L15.6218 17.7457C15.5518 17.797 15.4691 17.8282 15.3826 17.8359C15.2962 17.8436 15.2093 17.8276 15.1313 17.7895L13.1989 16.8457C13.1251 16.8097 13.0619 16.7553 13.0154 16.6878C12.9688 16.6202 12.9405 16.5417 12.9332 16.46L12.6665 13.4562C12.6608 13.3884 12.6696 13.3202 12.6925 13.2561C12.7153 13.192 12.7516 13.1336 12.7989 13.0847ZM15.9694 24.299L14.8961 25.4971C14.8391 25.5605 14.7663 25.6075 14.685 25.6331C14.6038 25.6587 14.5171 25.6621 14.4342 25.6428L11.5122 24.9695C11.4463 24.9544 11.3844 24.9255 11.3305 24.8846C11.2766 24.8437 11.2321 24.7918 11.1999 24.7324C10.6277 23.6724 10.2533 22.517 10.0951 21.3228C10.0863 21.2569 10.0915 21.1899 10.1102 21.1261C10.1289 21.0623 10.1607 21.0031 10.2037 20.9524L12.037 18.8419C12.1079 18.7604 12.2044 18.7055 12.3107 18.6861C12.417 18.6667 12.5267 18.684 12.6218 18.7352L14.6218 19.8086C14.7303 19.8664 14.8122 19.964 14.8503 20.0809L16.0665 23.839C16.0915 23.9176 16.0957 24.0012 16.0787 24.0819C16.0617 24.1625 16.024 24.2373 15.9694 24.299ZM23.5884 27.1562L22.1227 29.6105C22.0879 29.6689 22.041 29.7191 21.9852 29.7579C21.9293 29.7967 21.8658 29.823 21.7989 29.8352C20.6211 30.0495 19.4144 30.0511 18.2361 29.84C18.169 29.8279 18.1053 29.8016 18.0493 29.7629C17.9932 29.7241 17.9462 29.6737 17.9113 29.6152L16.4399 27.16C16.3876 27.0727 16.3646 26.9709 16.3744 26.8696C16.3842 26.7683 16.4261 26.6728 16.4942 26.5971L17.5665 25.4C17.6113 25.3501 17.6661 25.3103 17.7273 25.283C17.7885 25.2558 17.8548 25.2418 17.9218 25.2419H22.1056C22.1726 25.2418 22.2389 25.2558 22.3001 25.283C22.3613 25.3103 22.4161 25.3501 22.4608 25.4L23.5322 26.5971C23.6 26.6728 23.6419 26.7681 23.6516 26.8692C23.6614 26.9703 23.6386 27.0718 23.5865 27.159L23.5884 27.1562ZM28.8018 24.7295C28.7695 24.7889 28.725 24.8408 28.6711 24.8817C28.6173 24.9226 28.5553 24.9516 28.4894 24.9666L25.5675 25.64C25.4845 25.6592 25.3979 25.6559 25.3166 25.6302C25.2354 25.6046 25.1625 25.5577 25.1056 25.4943L24.0322 24.2962C23.9771 24.2338 23.9393 24.158 23.9226 24.0765C23.9059 23.9949 23.9109 23.9104 23.937 23.8314L25.1532 20.0733C25.1914 19.9564 25.2733 19.8588 25.3818 19.8009L27.3818 18.7276C27.4768 18.6767 27.5863 18.6595 27.6923 18.6789C27.7984 18.6982 27.8947 18.753 27.9656 18.8343L29.7961 20.9524C29.8403 21.0034 29.8732 21.0632 29.8926 21.1279C29.912 21.1926 29.9174 21.2607 29.9084 21.3276C29.7485 22.5204 29.3729 23.6741 28.7999 24.7324L28.8018 24.7295Z" fill="white"/>
</g>
<defs>
<clipPath id="clip0_82_2735">
<rect width="22.8571" height="22.8571" fill="white" transform="translate(8.57129 8.57141)"/>
</clipPath>
</defs>
</svg>
