<svg width="36" height="42" viewBox="0 0 36 42" fill="none" xmlns="http://www.w3.org/2000/svg">
<path d="M34.4187 19.4911C34.3774 19.3556 34.3031 19.2324 34.2025 19.1326C34.1019 19.0327 33.9782 18.9594 33.8423 18.9192C33.7064 18.8789 33.5627 18.873 33.424 18.9019C33.2852 18.9308 33.1558 18.9937 33.0473 19.0849C32.036 19.9446 30.9133 20.6642 29.7098 21.2242C29.6466 21.2537 29.5772 21.2673 29.5077 21.2638C29.4381 21.2603 29.3704 21.2398 29.3105 21.2041C29.2507 21.1685 29.2004 21.1187 29.1643 21.0591C29.1281 20.9996 29.107 20.9321 29.1029 20.8625C28.7246 15.9046 26.7174 11.211 23.3941 7.51249C20.0707 3.81398 15.6177 1.31817 10.7283 0.413688C10.5677 0.388178 10.4032 0.408885 10.2539 0.473392C10.1046 0.537899 9.97677 0.643544 9.88528 0.77799C9.7938 0.912435 9.74244 1.07013 9.73723 1.23267C9.73201 1.39521 9.77313 1.55588 9.85581 1.69592C11.2628 4.17643 12.0018 6.97976 12.0003 9.83155C12.001 11.7806 11.6352 13.7123 10.922 15.5262C10.8929 15.5993 10.8443 15.663 10.7815 15.7105C10.7187 15.7579 10.6441 15.7872 10.5658 15.7951C10.4874 15.8031 10.4085 15.7894 10.3374 15.7556C10.2663 15.7218 10.2059 15.6691 10.1627 15.6033C9.37846 14.389 8.77341 13.0681 8.36616 11.6812C8.32588 11.5449 8.25235 11.4208 8.15219 11.32C8.05204 11.2192 7.92839 11.1449 7.79239 11.1038C7.65639 11.0627 7.51229 11.056 7.37306 11.0843C7.23384 11.1127 7.10385 11.1753 6.99479 11.2663C5.07098 12.8717 3.52394 14.8807 2.46338 17.1509C1.40282 19.421 0.854712 21.8967 0.857924 24.4023C0.857924 24.7109 0.857924 25.0177 0.875066 25.3229C1.07087 29.8154 3.02412 34.0511 6.31378 37.1169C9.60344 40.1827 13.9661 41.8331 18.4612 41.7124C22.9564 41.5916 27.2241 39.7094 30.3444 36.4713C33.4648 33.2333 35.1878 28.8989 35.1421 24.4023C35.1442 22.7386 34.9005 21.0836 34.4187 19.4911ZM18 36.8303C17.0843 36.8263 16.1786 36.6397 15.3359 36.2815C14.4931 35.9233 13.7302 35.4007 13.0918 34.7442C12.4534 34.0878 11.9522 33.3106 11.6176 32.4582C11.283 31.6058 11.1218 30.6953 11.1432 29.7798C11.1746 27.2494 11.9461 24.7835 13.3626 22.6865C14.7791 20.5895 16.7786 18.9531 19.1143 17.9792C19.2015 17.9449 19.2976 17.9401 19.3879 17.9654C19.4782 17.9908 19.5578 18.0449 19.6144 18.1196C19.6711 18.1944 19.7018 18.2856 19.7019 18.3793C19.7019 18.4731 19.6714 18.5644 19.6148 18.6392C18.8808 19.6595 18.4212 20.8513 18.2801 22.1003C18.139 23.3493 18.3212 24.6136 18.8091 25.772C18.8382 25.832 18.8807 25.8846 18.9333 25.9256C18.9859 25.9666 19.0472 25.995 19.1125 26.0085C19.178 26.0213 19.2455 26.0186 19.3098 26.0008C19.3741 25.9829 19.4333 25.9504 19.4828 25.9057C20.0662 25.4349 20.5032 24.8076 20.7428 24.0972C20.7597 24.0374 20.7897 23.982 20.8306 23.9352C20.8715 23.8883 20.9223 23.8512 20.9793 23.8264C21.036 23.8001 21.0977 23.7865 21.1602 23.7865C21.2226 23.7865 21.2843 23.8001 21.341 23.8264C22.4719 24.3852 23.4104 25.2686 24.0367 26.3636C24.663 27.4586 24.9485 28.7154 24.8569 29.9735C24.875 30.879 24.7101 31.7787 24.372 32.6189C24.0338 33.459 23.5294 34.2222 22.889 34.8625C22.2487 35.5029 21.4855 36.0073 20.6454 36.3455C19.8053 36.6836 18.9055 36.8485 18 36.8303Z" fill="url(#paint0_linear_2_375)"/>
<defs>
<linearGradient id="paint0_linear_2_375" x1="18.0005" y1="0.403076" x2="18.0005" y2="41.7186" gradientUnits="userSpaceOnUse">
<stop stop-color="#F5E127"/>
<stop offset="1" stop-color="#ED3636"/>
</linearGradient>
</defs>
</svg>
