<svg width="24" height="28" viewBox="0 0 24 28" fill="none" xmlns="http://www.w3.org/2000/svg">
<path fill-rule="evenodd" clip-rule="evenodd" d="M17.8812 1.69133L17.8825 2.69083C21.5554 2.97868 23.9815 5.48143 23.9855 9.31951L24 20.5539C24.0052 24.7384 21.3763 27.3132 17.1624 27.3198L6.86918 27.3331C2.68159 27.3385 0.0197554 24.7025 0.0144897 20.5059L8.86633e-06 9.40346C-0.00525688 5.54007 2.33537 3.04398 6.00823 2.70682L6.00691 1.70732C6.00559 1.12095 6.44002 0.679834 7.01925 0.679834C7.59848 0.678501 8.03291 1.11828 8.03422 1.70465L8.03554 2.63752L15.8552 2.62686L15.8539 1.69399C15.8525 1.10762 16.287 0.66784 16.8662 0.666507C17.4323 0.665174 17.8799 1.10495 17.8812 1.69133ZM2.02866 9.81529L21.9595 9.78864V9.3222C21.9029 6.45697 20.4654 4.95373 17.8851 4.72984L17.8865 5.75599C17.8865 6.32904 17.4402 6.78348 16.8741 6.78348C16.2949 6.78481 15.8591 6.3317 15.8591 5.75866L15.8578 4.6792L8.0382 4.68986L8.03951 5.76798C8.03951 6.34236 7.60641 6.79547 7.02717 6.79547C6.44794 6.7968 6.0122 6.34503 6.0122 5.77065L6.01088 4.7445C3.44383 5.0017 2.0234 6.51028 2.02735 9.40083L2.02866 9.81529ZM16.3198 15.8724V15.887C16.333 16.5001 16.8332 16.9652 17.4401 16.9518C18.0325 16.9372 18.5051 16.4294 18.4919 15.8164C18.4643 15.23 17.9891 14.7516 17.398 14.7529C16.7924 14.7663 16.3185 15.2593 16.3198 15.8724ZM17.4075 21.8562C16.802 21.8429 16.3136 21.3378 16.3123 20.7248C16.2991 20.1118 16.7849 19.604 17.3904 19.5894H17.4036C18.0223 19.5894 18.5239 20.0944 18.5239 20.7208C18.5252 21.3471 18.025 21.8549 17.4075 21.8562ZM10.896 15.8935C10.9223 16.5065 11.4239 16.985 12.0294 16.9583C12.6218 16.9303 13.0944 16.4239 13.0681 15.8109C13.0536 15.2112 12.5666 14.7448 11.9742 14.7461C11.3686 14.7727 10.8947 15.2805 10.896 15.8935ZM12.0348 21.7957C11.4293 21.8224 10.929 21.3439 10.9014 20.7309C10.9014 20.1179 11.374 19.6115 11.9795 19.5835C12.5719 19.5822 13.0603 20.0486 13.0735 20.647C13.1011 21.2613 12.6272 21.7677 12.0348 21.7957ZM5.47265 15.9399C5.49898 16.5529 6.00054 17.0327 6.6061 17.0047C7.1985 16.9781 7.6711 16.4703 7.64346 15.8573C7.63029 15.2576 7.14321 14.7911 6.5495 14.7925C5.94394 14.8191 5.47134 15.3269 5.47265 15.9399ZM6.61099 21.8026C6.00543 21.8305 5.50518 21.3508 5.47754 20.7378C5.47622 20.1247 5.95014 19.617 6.5557 19.5903C7.1481 19.589 7.63649 20.0554 7.64966 20.6551C7.6773 21.2682 7.2047 21.7759 6.61099 21.8026Z" fill="#D13E34"/>
</svg>
