<svg width="52" height="52" viewBox="0 0 52 52" fill="none" xmlns="http://www.w3.org/2000/svg">
<path d="M26 36.5417C31.822 36.5417 36.5417 31.822 36.5417 26C36.5417 20.178 31.822 15.4584 26 15.4584C20.178 15.4584 15.4583 20.178 15.4583 26C15.4583 31.822 20.178 36.5417 26 36.5417Z" fill="#1877F2"/>
<path d="M30.1035 29.047L30.571 26H27.6473V24.0228C27.6473 23.1891 28.0556 22.3765 29.3651 22.3765H30.6943V19.7823C29.9138 19.656 29.1252 19.5871 28.3348 19.576C25.9267 19.576 24.3528 21.0354 24.3528 23.6777V26H21.6761V29.047H24.3528V36.4134C25.4443 36.5845 26.5558 36.5845 27.6473 36.4134V29.047H30.1035Z" fill="#EDF2F7"/>
<rect x="0.5" y="0.5" width="51" height="51" rx="25.5" stroke="#E2E8F0"/>
</svg>
