<svg width="52" height="52" viewBox="0 0 52 52" fill="none" xmlns="http://www.w3.org/2000/svg">
<path d="M26.498 19.7947C27.9556 19.7938 29.3665 20.3089 30.4806 21.2487L33.6014 18.2768C32.4034 17.1722 30.9644 16.3619 29.3987 15.9105C27.8329 15.459 26.1835 15.3787 24.5813 15.6759C22.9791 15.9731 21.4682 16.6396 20.1686 17.6227C18.8689 18.6057 17.8163 19.8781 17.0942 21.3389L20.6125 24.0507C21.0228 22.8134 21.812 21.7366 22.8683 20.9727C23.9246 20.2089 25.1945 19.7968 26.498 19.7947Z" fill="#D94F3D"/>
<path d="M20.2946 25.9981C20.2955 25.3361 20.4028 24.6786 20.6125 24.0507L17.0942 21.3389C16.3745 22.7866 16 24.3814 16 25.9981C16 27.6148 16.3745 29.2096 17.0942 30.6573L20.6125 27.9455C20.4028 27.3176 20.2955 26.6601 20.2946 25.9981Z" fill="#F2C042"/>
<path d="M36.5666 24.0894H26.5458V28.384H32.2243C31.8865 29.5983 31.1125 30.6453 30.0507 31.3244L33.5418 34.0157C35.7726 32.0135 37.0834 28.7576 36.5666 24.0894Z" fill="#5085ED"/>
<path d="M30.0492 31.3244C28.9703 31.9419 27.7404 32.2457 26.498 32.2014C25.1945 32.1994 23.9246 31.7873 22.8683 31.0234C21.812 30.2596 21.0228 29.1827 20.6125 27.9454L17.0942 30.6573C17.9632 32.4091 19.3038 33.8836 20.9651 34.9151C22.6264 35.9466 24.5425 36.4942 26.498 36.4961C29.0712 36.566 31.5794 35.6822 33.5403 34.0147L30.0492 31.3244Z" fill="#57A75C"/>
<rect x="0.5" y="0.5" width="51" height="51" rx="25.5" stroke="#E2E8F0"/>
</svg>
